<?xml version="1.0" standalone="no"?><!DOCTYPE svg PUBLIC "-//W3C//DTD SVG 1.1//EN" "http://www.w3.org/Graphics/SVG/1.1/DTD/svg11.dtd"><svg t="1596177629348" class="icon" viewBox="0 0 1024 1024" version="1.1" xmlns="http://www.w3.org/2000/svg" p-id="8537" xmlns:xlink="http://www.w3.org/1999/xlink" width="400" height="400"><defs><style type="text/css"></style></defs><path d="M413.323037 150.760655c0 54.577091 44.275198 98.851112 98.851113 98.851112 54.577091 0 98.851112-44.274021 98.851112-98.851112 0-54.575915-44.278728-98.851112-98.851112-98.851113-54.571208 0-98.851112 44.281081-98.851113 98.851113z m444.826476 132.211362H166.19761c-27.285016 0-49.422026 22.141717-49.422026 49.422026 0 27.292076 22.13701 49.429086 49.422026 49.429086h202.745505c11.533885 2.060379 27.184997 7.928516 35.425335 29.347748 9.573525 24.816327 4.83736 69.196249-1.135503 106.572532l-7.722596 44.072807c0 0.20239-0.105902 0.40831-0.105902 0.614231l-62.500901 354.72403c-4.736165 26.879059 13.182423 52.514359 40.061482 57.255231 26.868468 4.731458 52.203714-13.182423 56.933996-40.055599l43.249126-247.019525v0.305938s12.870601-66.92995 37.994043-66.92995h2.267476c25.636477 0 37.99522 66.92995 37.99522 66.92995v-0.20592l43.243243 246.918331c4.742048 26.873175 30.172605 44.787056 57.04578 40.055598 26.873175-4.742048 44.791763-30.377349 39.95558-57.255231l-62.606802-354.825225v-0.105902c0-0.20592-0.105902-0.41184-0.105902-0.618937l-7.822615-44.072808c-5.974039-37.270381-10.709027-81.650303-1.130796-106.467806 8.234455-21.412171 23.987939-27.280309 35.419452-29.340688h202.745505c27.285016 0 49.422026-22.142894 49.422026-49.429086 0.001177-27.285016-22.140541-49.320831-49.420849-49.320831z m0 0" p-id="8538" fill="#d81e06"></path></svg>