<?xml version="1.0" standalone="no"?><!DOCTYPE svg PUBLIC "-//W3C//DTD SVG 1.1//EN" "http://www.w3.org/Graphics/SVG/1.1/DTD/svg11.dtd"><svg t="1599220391291" class="icon" viewBox="0 0 1024 1024" version="1.1" xmlns="http://www.w3.org/2000/svg" p-id="1341" xmlns:xlink="http://www.w3.org/1999/xlink" width="200" height="200"><defs><style type="text/css"></style></defs><path d="M512 360.727273a34.909091 34.909091 0 0 1-34.909091-34.909091v-69.818182a34.909091 34.909091 0 1 1 69.818182 0v69.818182a34.909091 34.909091 0 0 1-34.909091 34.909091z m-222.161455-27.159273l49.361455 49.361455a34.909091 34.909091 0 1 1-49.338182 49.361454l-49.384727-49.361454a34.909091 34.909091 0 1 1 49.361454-49.361455zM232.727273 570.181818a34.909091 34.909091 0 1 1 0 69.818182H162.909091a34.909091 34.909091 0 1 1 0-69.818182h69.818182z m628.363636 0a34.909091 34.909091 0 1 1 0 69.818182h-69.818182a34.909091 34.909091 0 1 1 0-69.818182h69.818182z m-77.568-236.613818a34.909091 34.909091 0 0 1 0 49.361455l-49.361454 49.361454a34.816 34.816 0 0 1-49.361455 0 34.909091 34.909091 0 0 1 0-49.361454l49.361455-49.361455a34.909091 34.909091 0 0 1 49.361454 0zM842.938182 861.090909A417.233455 417.233455 0 0 0 930.909091 605.090909c0-230.981818-187.904-418.909091-418.909091-418.909091-230.981818 0-418.909091 187.927273-418.909091 418.909091 0 92.834909 31.045818 182.644364 87.970909 256h661.876364zM512 116.363636c269.917091 0 488.727273 218.810182 488.727273 488.727273 0 125.346909-47.592727 239.313455-125.207273 325.818182H148.48C70.865455 844.404364 23.249455 730.437818 23.249455 605.090909 23.272727 335.173818 242.106182 116.363636 512 116.363636z m-32.907636 455.819637c18.152727-18.176 97.000727-67.537455 115.2-49.384728 18.152727 18.199273-31.208727 97.024-49.384728 115.2a46.545455 46.545455 0 1 1-65.815272-65.815272z" fill="#ffffff" p-id="1342"></path></svg>