<?xml version="1.0" standalone="no"?><!DOCTYPE svg PUBLIC "-//W3C//DTD SVG 1.1//EN" "http://www.w3.org/Graphics/SVG/1.1/DTD/svg11.dtd"><svg t="1604461270123" class="icon" viewBox="0 0 1024 1024" version="1.1" xmlns="http://www.w3.org/2000/svg" p-id="3625" xmlns:xlink="http://www.w3.org/1999/xlink" width="200" height="200"><defs><style type="text/css"></style></defs><path d="M512 983.04A434.87744 434.87744 0 0 1 317.40928 159.09376a36.24448 36.24448 0 1 1 32.47104 64.81408 362.65472 362.65472 0 1 0 306.688-8.192 36.24448 36.24448 0 1 1 28.94336-66.4576A434.88256 434.88256 0 0 1 512 983.04z m1.36192-490.30656a36.25472 36.25472 0 0 1-36.26496-36.23936V82.31936a36.27008 36.27008 0 0 1 72.53504 0v374.17472a36.25472 36.25472 0 0 1-36.27008 36.23936z" fill="#ffffff" p-id="3626"></path></svg>