<?xml version="1.0" standalone="no"?><!DOCTYPE svg PUBLIC "-//W3C//DTD SVG 1.1//EN" "http://www.w3.org/Graphics/SVG/1.1/DTD/svg11.dtd"><svg t="1599560305938" class="icon" viewBox="0 0 1024 1024" version="1.1" xmlns="http://www.w3.org/2000/svg" p-id="1184" xmlns:xlink="http://www.w3.org/1999/xlink" width="200" height="200"><defs><style type="text/css"></style></defs><path d="M828.72183 738.215042l176.526936 176.523323c24.987196 24.989002 24.987196 65.522302 0 90.509498-24.98539 24.989002-65.522302 24.989002-90.507692 0l-176.526935-176.523323m106.58121-367.917225c0-212.07869-171.92289-384.00158-384.003387-384.00158-212.064241 0-383.985324 171.92289-383.985324 384.00158 0 212.064241 171.921084 383.985324 383.985324 383.985325 212.080497 0 384.003387-171.921084 384.003387-383.985325z m-106.58121 367.917225c-193.248886 145.725529-466.310856 117.077133-625.13326-65.574682C-45.74333 580.517911-36.173996 306.117535 134.964996 134.978542 306.118438-36.173093 580.502559-45.744233 763.154373 113.07817c182.648202 158.82421 211.296599 431.884374 65.569264 625.136872" fill="#BCBCCB" p-id="1185"></path></svg>