<?xml version="1.0" standalone="no"?><!DOCTYPE svg PUBLIC "-//W3C//DTD SVG 1.1//EN" "http://www.w3.org/Graphics/SVG/1.1/DTD/svg11.dtd"><svg t="1595470111480" class="icon" viewBox="0 0 1024 1024" version="1.1" xmlns="http://www.w3.org/2000/svg" p-id="3465" xmlns:xlink="http://www.w3.org/1999/xlink" width="400" height="400"><defs><style type="text/css"></style></defs><path d="M888.32 360.96c7.68 12.8 17.92 25.6 28.16 40.96 10.24-17.92 20.48-33.28 33.28-51.2 17.92-25.6 35.84-43.52 46.08-76.8 20.48-64-25.6-110.08-87.04-110.08l-12.8 2.56c-15.36 5.12-28.16 12.8-38.4 23.04-7.68 7.68-12.8 17.92-17.92 28.16-10.24 28.16-2.56 61.44 10.24 79.36 10.24 23.04 23.04 43.52 38.4 64z m-12.8-122.88c5.12-20.48 17.92-23.04 38.4-30.72 58.88 0 58.88 81.92 5.12 89.6-28.16 2.56-53.76-30.72-43.52-58.88zM273.92 704c33.28-46.08 64-84.48 84.48-145.92 43.52-140.8-46.08-256-181.76-253.44-10.24 5.12-25.6 2.56-38.4 5.12-30.72 10.24-61.44 28.16-81.92 51.2-15.36 23.04-30.72 40.96-40.96 69.12-25.6 61.44-7.68 128 20.48 174.08 30.72 51.2 64 102.4 97.28 151.04 17.92 25.6 35.84 53.76 53.76 79.36h2.56c10.24-17.92 23.04-35.84 33.28-53.76 17.92-25.6 33.28-53.76 51.2-76.8z m-174.08-235.52c7.68-28.16 30.72-51.2 56.32-61.44 7.68-2.56 17.92-2.56 28.16-5.12 64 0 117.76 64 89.6 133.12-12.8 33.28-38.4 56.32-79.36 64-61.44 7.68-115.2-69.12-94.72-130.56z m834.56 189.44l-138.24-92.16c-15.36-10.24-30.72-23.04-48.64-33.28-30.72-17.92-64-33.28-94.72-51.2-17.92-10.24-35.84-17.92-51.2-30.72 64-12.8 128-12.8 194.56-25.6 33.28-5.12 66.56-7.68 102.4-12.8-5.12-7.68-20.48-28.16-28.16-30.72l-25.6 2.56c-30.72 2.56-61.44 2.56-92.16 5.12-23.04 2.56-48.64 0-74.24 5.12-71.68 7.68-143.36 12.8-215.04 20.48 33.28 25.6 64 48.64 97.28 74.24 33.28 23.04 71.68 40.96 104.96 64 43.52 33.28 84.48 66.56 128 99.84v2.56c-102.4 7.68-204.8 12.8-307.2 20.48l-61.44 2.56c-25.6 2.56-48.64 5.12-71.68 10.24l-33.28 2.56-99.84 168.96v2.56c112.64-25.6 230.4-43.52 348.16-69.12 61.44-10.24 125.44-23.04 186.88-33.28 89.6-15.36 176.64-30.72 266.24-46.08-30.72-20.48-58.88-38.4-87.04-56.32z" fill="#ffffff" p-id="3466"></path></svg>