<?xml version="1.0" standalone="no"?><!DOCTYPE svg PUBLIC "-//W3C//DTD SVG 1.1//EN" "http://www.w3.org/Graphics/SVG/1.1/DTD/svg11.dtd"><svg t="1599018294726" class="icon" viewBox="0 0 1024 1024" version="1.1" xmlns="http://www.w3.org/2000/svg" p-id="4065" xmlns:xlink="http://www.w3.org/1999/xlink" width="400" height="400"><defs><style type="text/css"></style></defs><path d="M512 1024c-282.76782 0-512-229.23218-512-512S229.23218 0 512 0s512 229.23218 512 512-229.23218 512-512 512z m90.91164-512.270382l130.168809-130.168809c23.586517-23.586517 23.586517-61.836944 0-85.429213-23.586517-23.586517-61.836944-23.586517-85.429213 0L517.48818 426.31191 387.313618 296.137348c-23.586517-23.586517-61.836944-23.586517-85.429214 0-23.586517 23.586517-23.586517 61.831191 0 85.423461l130.174562 130.168809-130.168809 130.174562c-23.586517 23.586517-23.586517 61.831191 0 85.42346 23.586517 23.586517 61.831191 23.586517 85.423461 0l130.168809-130.168809 130.174562 130.168809c23.586517 23.586517 61.831191 23.586517 85.42346 0 23.586517-23.586517 23.586517-61.836944 0-85.429213l-130.168809-130.168809z" p-id="4066" fill="#d81e06"></path></svg>