<svg xmlns="http://www.w3.org/2000/svg" xmlns:xlink="http://www.w3.org/1999/xlink" width="112.001" height="40" viewBox="0 0 112.001 40">
  <defs>
    <style>
      .cls-1 {
        fill: url(#linear-gradient);
      }
    </style>
    <linearGradient id="linear-gradient" x1="0.5" x2="0.5" y2="1" gradientUnits="objectBoundingBox">
      <stop offset="0" stop-color="#55d8fe"/>
      <stop offset="1" stop-color="#54d8ff" stop-opacity="0.502"/>
    </linearGradient>
  </defs>
  <g id="组_778" data-name="组 778" transform="translate(-554 -150)">
    <path id="Bar_Chart" data-name="Bar Chart" class="cls-1" d="M98,119V101h6v18Zm-9,0V89h8v30Zm-9,0V99h8v20Zm-9,0V106h8v13Zm-9,0V94h8v25Zm-9,0V84h8v35Zm-9,0V94h8v25Zm-9,0V99h8v20Zm-9,0V79h8v40Zm-9,0V89h8v30Zm-7,0V101h6v18Zm-9,0V89H9v30Zm-9,0V99H0v20Z" transform="translate(562 71)"/>
  </g>
</svg>
