<?xml version="1.0" standalone="no"?><!DOCTYPE svg PUBLIC "-//W3C//DTD SVG 1.1//EN" "http://www.w3.org/Graphics/SVG/1.1/DTD/svg11.dtd"><svg t="1595854255871" class="icon" viewBox="0 0 1024 1024" version="1.1" xmlns="http://www.w3.org/2000/svg" p-id="1201" xmlns:xlink="http://www.w3.org/1999/xlink" width="400" height="400"><defs><style type="text/css"></style></defs><path d="M320 735.9488A306.9184 306.9184 0 0 1 192 486.4c0-169.6512 137.5488-307.2 307.2-307.2s307.2 137.5488 307.2 307.2c0 100.5056-48.7168 192.5888-128 249.5488v176.9472a76.8 76.8 0 0 1-37.7856 66.1504L564.3776 1024h-130.3552l-76.2368-44.9536A76.8 76.8 0 0 1 320 912.896v-176.9472z m256.0256-57.344l25.5488-14.7712a204.8 204.8 0 1 0-204.7488 0l25.5744 14.7968v219.648l39.5776 23.3216h74.4448l39.5776-23.3472 0.0256-219.648zM665.6 486.4a38.4 38.4 0 0 1-76.8 0 89.6 89.6 0 0 0-89.6-89.6 38.4 38.4 0 0 1 0-76.8A166.4 166.4 0 0 1 665.6 486.4zM512 0a51.2 51.2 0 0 1 51.2 51.2v51.2a51.2 51.2 0 1 1-102.4 0V51.2a51.2 51.2 0 0 1 51.2-51.2zM25.6 396.9024a51.2 51.2 0 0 1 51.2-51.2h51.2a51.2 51.2 0 1 1 0 102.4H76.8a51.2 51.2 0 0 1-51.2-51.2z m819.2 0a51.2 51.2 0 0 1 51.2-51.2h51.2a51.2 51.2 0 1 1 0 102.4h-51.2a51.2 51.2 0 0 1-51.2-51.2zM822.2976 99.328a51.2 51.2 0 0 1 0 72.3968l-36.1984 36.1984a51.2 51.2 0 1 1-72.3968-72.3968l36.1984-36.1984a51.2 51.2 0 0 1 72.3968 0z m-646.1952 0a51.2 51.2 0 0 1 72.3968 0l36.1984 36.1984A51.2 51.2 0 1 1 212.3008 207.872L176.1024 171.6992a51.2 51.2 0 0 1 0-72.3968z" p-id="1202"></path></svg>