<?xml version="1.0" standalone="no"?><!DOCTYPE svg PUBLIC "-//W3C//DTD SVG 1.1//EN" "http://www.w3.org/Graphics/SVG/1.1/DTD/svg11.dtd"><svg t="1596024032210" class="icon" viewBox="0 0 1024 1024" version="1.1" xmlns="http://www.w3.org/2000/svg" p-id="5525" xmlns:xlink="http://www.w3.org/1999/xlink" width="400" height="400"><defs><style type="text/css"></style></defs><path d="M104.645714 968.308571h814.708572V1024H104.645714z" fill="#d81e06" p-id="5526"></path><path d="M367.24 1014.48c-241.611429-106.457143-182.514286-345.257143-71.485714-504.96s16.731429-263.12 7.6-281.371429c62.365714 44.102857 123.2 80.605714 97.348571 269.2s138.365714 117.12 89.737143-31.931428-98.868571-279.862857-42.594286-355.908572S574.085714 0 574.085714 0c-6.08 32-108.571429 134.022857 60.845715 355.908571 107.988571 141.44-28.902857 246.377143 13.714285 279.851429s66.651429-69.2 68.434286-108.045714c76.571429 48.731429 177.782857 375.634286-113.577143 483.611428 69.36-112.982857 66.434286-158.068571-33.954286-138.285714C502.245714 710.285714 397.514286 737.771429 341.388571 730.057143 414.36 827.428571 387.297143 920.354286 367.24 1014.48z" fill="#d81e06" p-id="5527"></path></svg>