<?xml version="1.0" standalone="no"?><!DOCTYPE svg PUBLIC "-//W3C//DTD SVG 1.1//EN" "http://www.w3.org/Graphics/SVG/1.1/DTD/svg11.dtd"><svg t="1595470102616" class="icon" viewBox="0 0 1024 1024" version="1.1" xmlns="http://www.w3.org/2000/svg" p-id="3145" xmlns:xlink="http://www.w3.org/1999/xlink" width="400" height="400"><defs><style type="text/css"></style></defs><path d="M658.816 613.973333c99.2-56.618667 166.954667-162.218667 166.954667-284.586666a328.789333 328.789333 0 1 0-657.578667 0c0 122.368 67.669333 227.968 166.954667 284.586666C163.712 676.266667 38.4 834.133333 23.978667 1023.402667h73.002666c18.517333-204.458667 190.72-365.269333 400-365.269334s381.482667 160.810667 400 365.226667h73.045334c-14.421333-189.226667-139.776-347.178667-311.210667-409.472zM241.237333 329.386667a256 256 0 0 1 255.744-255.658667 256 256 0 0 1 255.786667 255.658667 256 256 0 0 1-255.786667 255.658666A256 256 0 0 1 241.237333 329.386667z" p-id="3146" fill="#ffffff"></path></svg>