<?xml version="1.0" standalone="no"?><!DOCTYPE svg PUBLIC "-//W3C//DTD SVG 1.1//EN" "http://www.w3.org/Graphics/SVG/1.1/DTD/svg11.dtd"><svg t="1596764151461" class="icon" viewBox="0 0 1024 1024" version="1.1" xmlns="http://www.w3.org/2000/svg" p-id="1903" xmlns:xlink="http://www.w3.org/1999/xlink" width="200" height="200"><defs><style type="text/css"></style></defs><path d="M512 512m-512 0a512 512 0 1 0 1024 0 512 512 0 1 0-1024 0Z" fill="#09f048" p-id="1904" data-spm-anchor-id="a313x.7781069.0.i8" class="selected"></path><path d="M656.08 752H368a15.872 15.872 0 1 1 0-31.744h288.16a16 16 0 0 1 15.872 15.872 15.632 15.632 0 0 1-15.872 15.872z m0-64H368a77.552 77.552 0 0 1-80-74.752V378.752A77.552 77.552 0 0 1 368 304h288.16a77.568 77.568 0 0 1 80 74.752v234.752a77.36 77.36 0 0 1-80 74.496zM368 336a45.632 45.632 0 0 0-48 42.752v234.752a45.632 45.632 0 0 0 48 42.752h288.16A45.632 45.632 0 0 0 704 613.504V378.752A45.632 45.632 0 0 0 656.08 336H368z m251.2 111.872l-127.312 127.232a13.008 13.008 0 0 1-17.936 0l-68.64-68.608a12.672 12.672 0 0 1 17.936-17.92l59.424 59.392 118.4-118.272a12.384 12.384 0 0 1 17.936 0 12.912 12.912 0 0 1 0.256 18.176z" fill="#FFFFFF" p-id="1905"></path></svg>