<?xml version="1.0" standalone="no"?><!DOCTYPE svg PUBLIC "-//W3C//DTD SVG 1.1//EN" "http://www.w3.org/Graphics/SVG/1.1/DTD/svg11.dtd"><svg t="1596764175936" class="icon" viewBox="0 0 1024 1024" version="1.1" xmlns="http://www.w3.org/2000/svg" p-id="2253" xmlns:xlink="http://www.w3.org/1999/xlink" width="200" height="200"><defs><style type="text/css"></style></defs><path d="M512 512m-512 0a512 512 0 1 0 1024 0 512 512 0 1 0-1024 0Z" fill="#F8798C" p-id="2254"></path><path d="M655.824 736H368a15.872 15.872 0 1 1 0-31.744h288.16A15.872 15.872 0 1 1 655.904 736z m0-64H368a77.552 77.552 0 0 1-80-74.752V362.752A77.552 77.552 0 0 1 368 288h288.16a77.552 77.552 0 0 1 80 74.752v234.752A77.264 77.264 0 0 1 655.824 672zM368 320a45.712 45.712 0 0 0-48.16 42.752v234.752a45.632 45.632 0 0 0 47.904 42.752h288.16a45.632 45.632 0 0 0 47.904-42.752V362.752A45.632 45.632 0 0 0 655.824 320H368z m228.48 233.728l-71.216-71.168 69.68-69.632a9.296 9.296 0 0 0 2.816-6.656 10.016 10.016 0 0 0-9.728-9.728 6.208 6.208 0 0 0-4.624 1.792l-71.2 71.168-70.96-70.912a5.84 5.84 0 0 0-4.8-1.792 9.6 9.6 0 0 0-7.168 16.128l69.664 69.632-70.944 70.912a5.84 5.84 0 0 0-1.792 4.8 9.6 9.6 0 0 0 16.128 7.168l69.936-69.888 69.664 69.632a9.312 9.312 0 0 0 6.672 2.816 10.016 10.016 0 0 0 9.728-9.728 9.2 9.2 0 0 0-1.792-4.608z" fill="#FFFFFF" p-id="2255"></path></svg>