<?xml version="1.0" standalone="no"?><!DOCTYPE svg PUBLIC "-//W3C//DTD SVG 1.1//EN" "http://www.w3.org/Graphics/SVG/1.1/DTD/svg11.dtd"><svg t="1595470106171" class="icon" viewBox="0 0 1364 1024" version="1.1" xmlns="http://www.w3.org/2000/svg" p-id="3304" xmlns:xlink="http://www.w3.org/1999/xlink" width="532.8125" height="400"><defs><style type="text/css"></style></defs><path d="M507.878164 513.317288a173.372064 173.372064 0 1 0 346.744128 0 173.372064 173.372064 0 0 0-346.744128 0zM939.778571 737.936094a40.538468 40.538468 0 0 1-32.974687-63.994688c33.144659-46.997427 50.906797-102.493485 50.906797-160.369159 0-56.260935-16.742302-110.482198-48.272221-156.629762a40.623454 40.623454 0 0 1 66.884222-45.892605c40.793427 59.745373 62.549921 129.774089 62.549922 202.352394 0 74.787949-22.77633 146.431405-65.864388 207.366586a40.793427 40.793427 0 0 1-33.229645 17.167234zM413.033447 727.22782a40.453482 40.453482 0 0 1-33.994523-18.442029 357.367416 357.367416 0 0 1-57.790688-195.383517c0-71.048552 20.736659-139.632501 60.000332-198.612997a40.623454 40.623454 0 0 1 67.564114 45.042742 276.375467 276.375467 0 0 0-46.402523 153.570255c0 53.966304 15.382521 106.06291 44.702796 151.020666a40.538468 40.538468 0 0 1-33.994522 62.889866z" fill="#ffffff" p-id="3305"></path><path d="M1028.249315 879.608266a40.538468 40.538468 0 0 1-29.830193-68.244003 433.515146 433.515146 0 0 0 116.261266-295.922318c0-110.482198-41.473317-215.865217-116.771184-296.602207a40.538468 40.538468 0 0 1 59.320442-55.241099 513.997178 513.997178 0 0 1 138.612665 351.843306 513.742219 513.742219 0 0 1-137.932775 351.07843 40.198523 40.198523 0 0 1-29.745207 13.087891z m-694.593078 1.954685a40.368495 40.368495 0 0 1-29.490248-12.747946 513.827206 513.827206 0 0 1-139.972446-353.203087c0-130.878911 48.952112-255.468836 137.932775-351.163416a40.708441 40.708441 0 0 1 57.365756-2.124658c16.402357 15.297535 17.337206 40.963399 2.124658 57.365757a433.515146 433.515146 0 0 0-116.261267 295.922317c0 111.077102 41.898249 216.71508 117.876006 297.622043a40.708441 40.708441 0 0 1-29.575234 68.32899z" fill="#ffffff" p-id="3306"></path><path d="M1111.790854 1023.235123a40.623454 40.623454 0 0 1-27.450577-70.538634 600.173292 600.173292 0 0 0 194.108723-441.2489c0-166.998091-70.538634-327.707196-193.513819-440.823969a40.623454 40.623454 0 0 1 54.901154-59.745373 676.575981 676.575981 0 0 1 219.774587 500.569342 673.346502 673.346502 0 0 1-59.490414 278.330152 676.406009 676.406009 0 0 1-160.964063 222.664121 40.453482 40.453482 0 0 1-27.365591 10.708275z m-864.735663-1.104822a40.708441 40.708441 0 0 1-27.535563-10.793261A677.340858 677.340858 0 0 1 0.424932 511.447589 678.700639 678.700639 0 0 1 219.519628 11.558138 40.623454 40.623454 0 0 1 274.505768 71.388497 600.258279 600.258279 0 0 0 81.416881 511.447589a600.00332 600.00332 0 0 0 193.088887 440.144078 40.623454 40.623454 0 0 1-27.450577 70.538634z" fill="#ffffff" p-id="3307"></path></svg>