<?xml version="1.0" standalone="no"?><!DOCTYPE svg PUBLIC "-//W3C//DTD SVG 1.1//EN" "http://www.w3.org/Graphics/SVG/1.1/DTD/svg11.dtd"><svg t="1596555204114" class="icon" viewBox="0 0 1024 1024" version="1.1" xmlns="http://www.w3.org/2000/svg" p-id="2080" xmlns:xlink="http://www.w3.org/1999/xlink" width="400" height="400"><defs><style type="text/css"></style></defs><path d="M726.892529 485.262431a61.246359 61.246359 0 0 0 88.509629 0l189.62692-189.050936a60.798371 60.798371 0 0 0 0-88.253636L815.338159 18.906924a61.246359 61.246359 0 0 0-88.509629 0L537.265608 208.021858a60.798371 60.798371 0 0 0 0 88.253636l189.626921 189.050936zM410.868994 15.771008H63.230306A63.294305 63.294305 0 0 0 0 78.809319v346.550717c0 34.687071 28.415239 63.038311 63.230306 63.038311H410.868994a63.294305 63.294305 0 0 0 63.166308-63.038311V78.809319a63.294305 63.294305 0 0 0-63.166308-63.038311z m0 409.589028H63.230306V78.809319H410.868994v346.550717z m0 126.076623H63.230306A63.294305 63.294305 0 0 0 0 614.410972v346.550717C0 995.648759 28.415239 1024 63.230306 1024H410.868994a63.294305 63.294305 0 0 0 63.166308-63.038311V614.410972a63.294305 63.294305 0 0 0-63.166308-63.038312z m0 409.589028H63.230306V614.410972H410.868994v346.550717z m537.265608-409.589028H600.495914A63.294305 63.294305 0 0 0 537.265608 614.410972v346.550717c0 34.687071 28.479237 63.038311 63.230306 63.038311H948.134602a63.294305 63.294305 0 0 0 63.166308-63.038311V614.410972a63.294305 63.294305 0 0 0-63.166308-63.038312z m0 409.589028H600.495914V614.410972H948.134602v346.550717z" p-id="2081" fill="#ffffff"></path></svg>