<?xml version="1.0" standalone="no"?><!DOCTYPE svg PUBLIC "-//W3C//DTD SVG 1.1//EN" "http://www.w3.org/Graphics/SVG/1.1/DTD/svg11.dtd"><svg t="1595599229118" class="icon" viewBox="0 0 1024 1024" version="1.1" xmlns="http://www.w3.org/2000/svg" p-id="5353" xmlns:xlink="http://www.w3.org/1999/xlink" width="400" height="400"><defs><style type="text/css"></style></defs><path d="M723.73333333 722.02666667c-9.28 0-18.56-3.73333333-25.28-11.2-11.73333333-12.90666667-11.73333333-32.32-0.64-45.22666667 4.37333333-5.33333333 8.53333333-10.88 12.48-16.53333333 27.41333333-39.89333333 41.92-86.61333333 41.92-135.25333334 0-131.84-107.30666667-239.14666667-239.14666666-239.14666666S273.92 381.97333333 273.92 513.81333333c0 50.02666667 15.25333333 97.81333333 44.05333333 138.34666667 0.10666667 0.10666667 0.21333333 0.32 0.32 0.42666667 2.34666667 3.30666667 4.69333333 6.50666667 7.14666667 9.49333333 11.30666667 13.97333333 9.92 34.45333333-3.62666667 46.72-13.97333333 12.69333333-35.52 11.62666667-48.21333333-2.24-0.53333333-0.53333333-0.96-1.17333333-1.49333333-1.70666667-3.30666667-4.16-6.61333333-8.53333333-9.81333334-13.01333333-0.10666667-0.10666667-0.21333333-0.32-0.32-0.42666667-36.90666667-52.05333333-56.42666667-113.38666667-56.42666666-177.49333333 0-82.13333333 32-159.25333333 90.02666666-217.38666667 58.02666667-58.02666667 135.25333333-90.02666667 217.38666667-90.02666666s159.25333333 32 217.38666667 90.02666666c58.02666667 58.02666667 90.02666667 135.25333333 90.02666666 217.38666667 0 62.50666667-18.66666667 122.66666667-53.86666666 173.86666667-5.12 7.46666667-10.66666667 14.82666667-16.42666667 21.86666666-0.74666667 0.96-1.6 1.81333333-2.45333333 2.66666667-0.32 0.32-0.64 0.53333333-0.96 0.85333333-6.50666667 5.97333333-14.72 8.85333333-22.93333334 8.85333334zM786.98666667 889.81333333H239.14666667c-18.88 0-34.13333333-15.25333333-34.13333334-34.13333333v-68.90666667c0-18.88 15.25333333-34.13333333 34.13333334-34.13333333h12.8c18.88 0 34.13333333 15.25333333 34.13333333 34.13333333 0 10.77333333-5.01333333 20.37333333-12.8 26.66666667v8.10666667h479.57333333v-7.25333334c-8.42666667-6.18666667-13.86666667-16.21333333-13.86666666-27.52 0-18.88 15.25333333-34.13333333 34.13333333-34.13333333h13.86666667c18.88 0 34.13333333 15.25333333 34.13333333 34.13333333v68.90666667c0 18.88-15.25333333 34.13333333-34.13333333 34.13333333z" p-id="5354"></path><path d="M513.06666667 513.92m-68.69333334 0a68.69333333 68.69333333 0 1 0 137.38666667 0 68.69333333 68.69333333 0 1 0-137.38666667 0Z" p-id="5355"></path><path d="M513.06666667 512.42666667c-18.88 0-34.13333333-15.25333333-34.13333334-34.13333334V342.18666667c0-11.94666667 6.18666667-22.93333333 16.32-29.12 10.13333333-6.18666667 22.82666667-6.61333333 33.38666667-1.17333334l68.69333333 35.41333334c16.74666667 8.64 23.36 29.22666667 14.72 45.97333333-8.64 16.74666667-29.22666667 23.36-45.97333333 14.72l-18.98666667-9.70666667v80.10666667c0.10666667 18.66666667-15.14666667 34.02666667-34.02666666 34.02666667z" p-id="5356"></path><path d="M364.37333333 633.92c-5.65333333 0-11.2-1.38666667-16.32-4.16-10.45333333-5.65333333-17.17333333-16.42666667-17.70666666-28.37333333l-3.73333334-77.22666667c-0.96-18.88 13.65333333-34.88 32.42666667-35.73333333 18.77333333-0.96 34.88 13.65333333 35.73333333 32.42666666l1.06666667 21.33333334 69.44-40.10666667c16.32-9.38666667 37.22666667-3.84 46.61333333 12.48 9.38666667 16.32 3.84 37.22666667-12.48 46.61333333L381.44 629.33333333c-5.33333333 3.09333333-11.2 4.58666667-17.06666667 4.58666667z" p-id="5357"></path><path d="M596.8 675.73333333c-11.2 0-22.18666667-5.54666667-28.69333333-15.68-10.24-15.89333333-5.65333333-37.01333333 10.24-47.14666666l17.92-11.52-69.44-40.10666667c-16.32-9.38666667-21.86666667-30.29333333-12.48-46.61333333 9.38666667-16.32 30.29333333-21.86666667 46.61333333-12.48l117.86666667 68.05333333c10.34666667 5.97333333 16.74666667 16.85333333 17.06666666 28.69333333 0.32 11.94666667-5.65333333 23.04-15.68 29.54666667l-64.96 41.81333333c-5.65333333 3.73333333-12.05333333 5.44-18.45333333 5.44zM785.28 821.97333333c-6.08 0-12.16-0.53333333-18.13333333-1.6-49.17333333-8.74666667-84.90666667-51.41333333-84.90666667-101.44 0-16.10666667 3.84-32.21333333 11.09333333-46.50666666 0.10666667-0.32 0.32-0.53333333 0.42666667-0.85333334 5.44-10.56 12.69333333-20.05333333 21.54666667-28.16 13.86666667-12.8 35.41333333-11.94666667 48.21333333 1.92s11.94666667 35.41333333-1.92 48.21333334c-2.98666667 2.77333333-5.54666667 6.08-7.36 9.70666666-0.10666667 0.21333333-0.21333333 0.32-0.32 0.53333334-2.34666667 4.69333333-3.41333333 9.81333333-3.41333333 15.14666666 0 16.85333333 12.05333333 31.25333333 28.58666666 34.24 2.34666667 0.42666667 4.8 0.53333333 7.14666667 0.53333334h0.85333333c18.56 0 33.81333333 14.93333333 34.13333334 33.49333333 0.32 18.88-14.72 34.34666667-33.49333334 34.77333333H785.28zM239.78666667 821.97333333h-2.34666667c-18.88-0.96-33.38666667-16.96-32.42666667-35.73333333 0.96-18.56 16.42666667-32.85333333 34.98666667-32.42666667 2.02666667 0 4.05333333-0.21333333 5.97333333-0.53333333 16.64-2.98666667 28.58666667-17.28 28.58666667-34.24 0-6.18666667-1.6-12.26666667-4.69333333-17.49333333-0.10666667-0.10666667-0.10666667-0.21333333-0.21333334-0.32-1.28-2.02666667-2.66666667-4.05333333-4.37333333-5.76-1.17333333-1.28-2.24-2.56-3.2-3.94666667-9.6-13.86666667-7.68-33.06666667 5.12-44.69333333 13.97333333-12.69333333 35.52-11.62666667 48.21333333 2.34666666 0.10666667 0.10666667 0.21333333 0.21333333 0.21333334 0.32 4.58666667 5.01333333 8.74666667 10.45333333 12.26666666 16.32 0.10666667 0.10666667 0.21333333 0.32 0.32 0.42666667 9.6 15.89333333 14.61333333 34.24 14.61333334 52.90666667 0 50.02666667-35.73333333 92.69333333-84.90666667 101.44-5.86666667 0.85333333-12.05333333 1.38666667-18.13333333 1.38666666z m0.96-68.26666666z m-0.10666667 0c0.10666667 0 0.10666667 0 0 0 0.10666667 0 0.10666667 0 0 0z m0 0z" p-id="5358"></path></svg>