<?xml version="1.0" standalone="no"?><!DOCTYPE svg PUBLIC "-//W3C//DTD SVG 1.1//EN" "http://www.w3.org/Graphics/SVG/1.1/DTD/svg11.dtd"><svg t="1595599051625" class="icon" viewBox="0 0 1485 1024" version="1.1" xmlns="http://www.w3.org/2000/svg" p-id="3541" xmlns:xlink="http://www.w3.org/1999/xlink" width="580.078125" height="400"><defs><style type="text/css"></style></defs><path d="M848.820763 201.38126c17.717558-46.914098 56.147191-96.198855 111.670525-90.708907 78.855611 2.495431 125.520166 109.798952 68.125259 166.320458-61.387596 53.526989-148.852443 59.765566-214.482271 106.305349-20.961618 22.209333-27.57451 53.526989-39.178263 81.22627 88.587791-25.20385 173.557207-61.886682 256.779822-100.940173 82.224443-36.682832 118.283417-144.859754 78.481297-224.588765-34.93603-77.358353-130.511027-121.153162-210.988668-90.95845-61.886682 19.46436-98.569514 77.98221-121.028391 135.252345-34.436944 86.716218-70.371147 172.808578-106.180577 258.900938-86.09236 35.809431-172.18472 71.743633-258.900939 106.180578-57.270135 22.458877-115.787986 59.141708-135.252345 121.02839-30.194712 80.477641 13.724869 176.052638 90.95845 210.988668 79.729012 39.80212 188.030705 3.743146 224.588766-78.481296 39.053491-83.222615 75.736323-168.192031 100.940173-256.779822-27.699281 11.603753-59.016937 18.216644-81.226271 39.178262-46.539783 65.505057-52.653588 153.094675-106.305349 214.482272-56.521506 57.394907-163.700256 10.730352-166.320458-68.125259-5.614719-55.523334 43.670038-93.952967 90.708907-111.670525 98.943828-39.80212 197.388571-80.727184 295.833313-121.527477l121.77702-296.082856z m0 0M1151.766053 733.407092c-90.334592 26.576337-161.57914 97.945656-188.155477 188.280248 20.088217 8.234921 40.176435 16.469843 60.264652 24.954307 19.214817-74.73815 78.106982-133.505544 152.845133-152.969903-8.484464-20.088217-16.719386-40.051663-24.954308-60.264652z m0 0M1137.292555 662.412087c-7.735835-18.840502-15.721214-37.556232-24.829536-55.648105C983.199708 650.808334 880.887048 753.120994 836.967467 882.384306c17.967101 9.233094 36.807603 17.343244 55.523334 25.079079 37.431461-115.912757 129.013769-207.495065 244.801754-245.051298z m0 0M1192.815889 865.66492c-50.657244 6.113805-90.833679 46.415012-96.947484 97.197027 51.780188 21.335933 103.93469 41.923236 157.087364 59.890338-18.216644-53.152675-38.803948-105.182405-60.13988-157.087365z m0 0" fill="" p-id="3542"></path><path d="M1071.91227 546.000244c-69.497746-56.521506-175.927866-60.763738-249.168758-8.734008-86.840989 56.396734-117.909102 179.920556-68.749117 270.879006 6.238577 12.477154 13.724869 23.58182 22.084562 33.813086 55.024248-133.879859 162.078226-240.933837 295.833313-295.958084z m0 0M301.323261 235.443889l69.497745-0.374314 8.484465 6.987206c-36.55806 75.112465-23.706592 168.316803 38.679176 230.702571l284.97819-284.97819c-62.385768-62.385768-155.590106-75.237237-230.702571-38.679176l-6.987206-8.484464 0.374314-69.497746c17.343244-7.860607 26.077251-27.824053 19.589131-46.040697C478.374071 5.864262 457.16291-4.242232 437.948093 2.620202c-19.214817 6.862435-29.321311 28.073596-22.458876 47.288413 2.994517 8.484464 8.858779 15.222127 16.095528 19.464359l-0.499086 83.472158 11.478981 13.974412c-8.609236 6.238577-16.844157 13.225783-24.704764 20.961618-7.735835 7.735835-14.723041 15.970757-20.961618 24.704765L383.048617 201.006945l-83.472158 0.374315c-4.242232-7.236749-10.979895-13.101011-19.46436-16.095528-19.214817-6.862435-40.425978 3.24406-47.288412 22.458876s3.24406 40.425978 22.458877 47.288413c18.216644 6.48812 38.18009-2.245888 46.040697-19.589132z m0 0" fill="" p-id="3543"></path></svg>